<?xml version="1.0" encoding="utf-8" ?>
<svg baseProfile="full" height="824" version="1.1" viewBox="0 0 849 824" width="849" xmlns="http://www.w3.org/2000/svg" xmlns:ev="http://www.w3.org/2001/xml-events" xmlns:xlink="http://www.w3.org/1999/xlink"><defs /><path d="M 344 585 L 342 582 L 337 581 L 327 592 L 315 594 L 308 591 L 302 584 L 299 575 L 307 562 L 309 555 L 308 550 L 303 546 L 289 548 L 277 552 L 269 556 L 265 560 L 265 566 L 271 572 L 288 579 L 291 589 L 289 599 L 282 606 L 275 608 L 262 605 L 259 608 L 258 612 L 263 617 L 277 619 L 285 617 L 292 613 L 302 600 L 314 605 L 327 604 L 334 601 L 341 594 Z M 225 544 L 222 540 L 219 539 L 215 541 L 212 547 L 202 556 L 188 562 L 176 563 L 156 558 L 153 561 L 153 565 L 157 569 L 169 574 L 192 574 L 201 571 L 211 565 L 220 556 Z M 669 502 L 659 501 L 640 505 L 611 517 L 585 534 L 560 559 L 542 588 L 536 603 L 531 622 L 529 650 L 530 660 L 534 665 L 541 665 L 544 662 L 545 633 L 551 607 L 562 583 L 574 566 L 591 548 L 614 531 L 641 518 L 669 511 Z M 393 478 L 391 476 L 384 477 L 380 486 L 370 496 L 361 501 L 349 504 L 327 501 L 324 504 L 325 510 L 333 514 L 341 516 L 353 516 L 365 513 L 379 505 L 386 498 L 393 486 Z M 70 411 L 67 417 L 74 442 L 86 467 L 93 476 L 113 448 L 124 437 L 128 429 L 96 415 L 81 411 Z M 372 312 L 365 317 L 353 331 L 343 346 L 338 356 L 338 359 L 356 363 L 373 369 L 387 376 L 390 376 L 390 355 L 385 329 L 380 315 L 377 312 Z M 27 387 L 25 402 L 31 435 L 46 475 L 67 512 L 64 534 L 64 556 L 68 581 L 75 601 L 74 604 L 53 613 L 37 623 L 35 626 L 35 631 L 40 634 L 43 633 L 59 622 L 74 615 L 81 614 L 95 638 L 69 657 L 56 671 L 56 676 L 59 679 L 63 679 L 85 658 L 98 649 L 104 647 L 119 662 L 113 669 L 107 683 L 106 700 L 108 709 L 113 719 L 128 734 L 148 743 L 176 748 L 216 748 L 259 742 L 271 751 L 290 761 L 328 775 L 379 787 L 425 794 L 476 798 L 532 798 L 587 793 L 625 786 L 669 773 L 713 753 L 738 737 L 757 721 L 783 692 L 798 668 L 812 635 L 819 607 L 822 586 L 823 521 L 818 489 L 807 455 L 796 433 L 783 413 L 771 398 L 752 379 L 733 364 L 712 351 L 687 339 L 667 332 L 647 327 L 618 323 L 580 323 L 549 327 L 520 334 L 489 345 L 462 358 L 429 378 L 426 344 L 421 321 L 413 298 L 406 284 L 396 272 L 385 266 L 374 266 L 354 276 L 330 299 L 317 315 L 299 342 L 277 342 L 259 344 L 220 354 L 198 363 L 183 371 L 166 382 L 153 393 L 149 393 L 139 388 L 107 377 L 86 372 L 64 369 L 54 369 L 41 372 L 30 381 Z M 124 685 L 130 674 L 135 669 L 150 660 L 161 657 L 193 657 L 218 664 L 231 670 L 239 676 L 235 688 L 235 703 L 238 714 L 245 726 L 241 728 L 213 731 L 178 731 L 150 726 L 135 718 L 128 711 L 123 699 Z M 800 614 L 793 638 L 778 669 L 755 699 L 732 720 L 703 739 L 666 756 L 638 765 L 593 775 L 533 781 L 475 781 L 426 777 L 375 769 L 321 755 L 300 747 L 282 738 L 262 722 L 257 715 L 252 703 L 253 684 L 260 672 L 273 661 L 280 657 L 298 651 L 319 648 L 335 648 L 352 650 L 385 658 L 407 666 L 477 696 L 516 708 L 546 714 L 572 717 L 615 717 L 650 712 L 682 703 L 700 696 L 732 679 L 759 659 L 781 637 L 799 612 Z M 500 359 L 533 348 L 562 342 L 580 340 L 619 340 L 635 342 L 676 353 L 706 367 L 735 387 L 758 409 L 778 436 L 791 461 L 796 474 L 804 507 L 805 544 L 801 566 L 795 583 L 787 599 L 773 620 L 747 647 L 726 663 L 690 682 L 653 694 L 616 700 L 571 700 L 530 694 L 503 687 L 474 677 L 406 648 L 434 622 L 450 602 L 467 572 L 476 544 L 491 543 L 517 547 L 521 543 L 520 538 L 517 536 L 478 531 L 480 517 L 480 501 L 482 499 L 516 497 L 519 495 L 520 490 L 515 486 L 491 487 L 482 489 L 478 487 L 474 463 L 465 439 L 456 422 L 438 394 L 474 371 Z M 383 283 L 389 289 L 394 297 L 404 324 L 410 351 L 413 395 L 429 412 L 442 431 L 453 454 L 462 487 L 462 492 L 460 494 L 445 498 L 422 509 L 420 514 L 423 518 L 428 518 L 449 508 L 463 505 L 462 529 L 460 533 L 429 537 L 426 541 L 427 545 L 430 547 L 457 543 L 458 547 L 452 564 L 435 594 L 408 624 L 386 641 L 353 633 L 328 631 L 309 632 L 292 635 L 277 640 L 260 649 L 248 660 L 228 650 L 211 644 L 183 639 L 160 640 L 145 644 L 133 650 L 126 645 L 121 637 L 140 630 L 153 627 L 156 624 L 155 619 L 152 617 L 140 619 L 124 624 L 112 630 L 105 622 L 97 609 L 99 607 L 115 604 L 147 602 L 150 597 L 146 592 L 117 593 L 93 598 L 91 596 L 84 575 L 81 553 L 81 534 L 85 508 L 70 485 L 53 448 L 43 412 L 42 398 L 44 391 L 47 388 L 54 386 L 80 388 L 108 395 L 155 413 L 183 391 L 202 380 L 220 372 L 261 361 L 277 359 L 308 359 L 325 333 L 343 310 L 365 289 L 375 283 Z M 251 224 L 208 227 L 204 230 L 204 234 L 207 237 L 237 236 L 206 271 L 203 276 L 206 282 L 211 283 L 251 280 L 254 277 L 255 274 L 252 270 L 224 272 L 221 271 L 254 233 L 255 229 Z M 346 132 L 340 131 L 289 135 L 285 139 L 285 144 L 289 148 L 314 146 L 326 147 L 285 193 L 284 200 L 286 203 L 290 205 L 345 201 L 348 199 L 349 191 L 346 188 L 308 191 L 307 189 L 349 142 L 349 135 Z M 456 26 L 444 25 L 389 29 L 384 31 L 382 34 L 382 40 L 384 43 L 388 45 L 422 42 L 433 43 L 382 99 L 380 106 L 384 112 L 396 113 L 456 108 L 459 105 L 460 99 L 456 94 L 453 93 L 420 96 L 407 95 L 459 38 L 460 31 Z" fill="#FFFFFF" fill-rule="evenodd" stroke="none" /></svg>