<svg width="420" height="280" viewBox="0 0 420 280" fill="none" xmlns="http://www.w3.org/2000/svg">
  <ellipse cx="212" cy="238" rx="94" ry="13" fill="#B9CCF6" fill-opacity="0.30"/>

  <g stroke="#F7FAFF" stroke-width="5.5" stroke-linecap="round" stroke-linejoin="round">
    <path d="M121 176C112 164 108 149 108 134C108 101 136 79 177 79C208 79 231 90 244 112"/>
    <path d="M244 112C259 91 285 79 318 79C359 79 388 103 388 138C388 173 359 197 321 197H232"/>
    <path d="M232 197C214 197 198 193 183 186"/>
    <path d="M183 186C170 214 145 230 118 230C93 230 74 216 74 196C74 177 89 164 109 164C127 164 143 173 152 186"/>

    <path d="M132 124L100 106L105 139"/>
    <path d="M208 95L234 70L241 106"/>

    <path d="M129 149C139 138 158 138 169 149"/>
    <path d="M171 149C181 137 200 137 211 149"/>

    <path d="M164 160C172 167 184 167 192 160"/>
    <path d="M178 160L175 173"/>
    <path d="M178 160L181 173"/>

    <path d="M150 167L117 161"/>
    <path d="M149 177L112 179"/>
    <path d="M153 186L121 195"/>
    <path d="M190 167L223 161"/>
    <path d="M191 177L228 179"/>
    <path d="M188 186L220 195"/>

    <path d="M156 194C182 214 214 225 247 225C304 225 347 201 372 170"/>
    <path d="M372 170C376 184 373 195 365 204"/>
    <path d="M259 198C273 184 290 177 307 177C324 177 337 184 341 197C345 210 337 221 323 226"/>
  </g>
</svg>
